<svg width="82" height="52" viewBox="0 0 82 52" fill="none" xmlns="http://www.w3.org/2000/svg">
<path d="M12.28 3.24072C10.5873 4.62739 11.7887 5.96077 14.7918 5.96077C18.0134 5.96077 22.1086 13.2141 22.1086 18.7608C22.1086 21.5341 21.7264 21.6941 16.1023 21.6941C-0.00565434 21.6941 -5.73895 35.1341 5.78232 45.9072C22.1633 61.2672 44.9874 41.1606 36.9061 18.4941C32.7563 7.02744 18.4502 -1.82595 12.28 3.24072Z" fill="#08C76A"/>
<path d="M78.4593 15.7741C73.9272 6.44074 59.0205 -1.71943 52.9594 1.74724C51.2667 2.70724 51.922 3.61407 56.072 6.17407C64.044 11.1341 66.5012 19.2941 60.0034 19.2941C41.7659 19.2941 37.2883 44.4672 54.5975 49.6939C75.3469 55.9339 88.7793 36.8407 78.4593 15.7741Z" fill="#08C76A"/>
</svg>
