<svg width="77" height="75" viewBox="0 0 77 75" fill="none" xmlns="http://www.w3.org/2000/svg">
<g opacity="0.1" clip-path="url(#clip0_387_334)">
<path d="M12.5584 57.8721C10.9998 56.5933 12.1059 55.3637 14.8711 55.3637C17.8374 55.3637 21.6081 48.6745 21.6081 43.5593C21.6081 41.0017 21.2562 40.8541 16.0777 40.8541C1.24623 40.8541 -4.03275 28.4596 6.57555 18.5244C21.6584 4.35922 42.6739 22.9019 35.233 43.8052C31.412 54.38 18.2396 62.5447 12.5584 57.8721Z" fill="#F4831F"/>
<path d="M73.4931 46.3137C69.3202 54.921 55.5947 62.4464 50.0139 59.2494C48.4553 58.3641 49.0587 57.5278 52.8798 55.1669C60.2201 50.5927 62.4826 43.0674 56.4997 43.0674C39.7074 43.0674 35.5846 19.8524 51.5222 15.0323C70.6273 9.27769 82.9953 26.8857 73.4931 46.3137Z" fill="#F4831F"/>
</g>
<defs>
<clipPath id="clip0_387_334">
<rect width="76.6644" height="75" fill="white" transform="matrix(1 0 0 -1 0.168945 75)"/>
</clipPath>
</defs>
</svg>
