<svg width="74" height="45" viewBox="0 0 74 45" fill="none" xmlns="http://www.w3.org/2000/svg">
<path d="M62.7831 2.0616C64.2957 3.30066 63.2222 4.49211 60.5387 4.49211C57.6601 4.49211 54.0008 10.9733 54.0008 15.9296C54.0008 18.4077 54.3423 18.5507 59.3678 18.5507C73.761 18.5507 78.884 30.5599 68.5892 40.1863C53.952 53.9113 33.5574 35.9449 40.7785 15.6913C44.4866 5.44523 57.2698 -2.46573 62.7831 2.0616Z" fill="#08C76A"/>
<path d="M3.64869 13.261C7.69832 4.92113 21.0182 -2.37039 26.4341 0.727255C27.9466 1.58506 27.3611 2.39536 23.6529 4.68285C16.5294 9.11487 14.3339 16.4063 20.14 16.4063C36.4361 16.4063 40.4371 38.8998 24.9704 43.5701C6.42976 49.1458 -5.57277 32.0851 3.64869 13.261Z" fill="#08C76A"/>
</svg>
